# File produced by Open Asset Import Library (http://www.assimp.sf.net)
# (assimp v3.1.187496374)

mtllib Pizza Bat.obj.mtl

# 208 vertex positions
v  -1.24557 0.995434 0
v  -1.23772 0.995302 0.0758077
v  -1.24557 0.995434 0.3175
v  -1.24557 0.995434 -0.3175
v  -1.23772 0.995302 -0.0758077
v  -3.4689 1.99205 0.3175
v  -3.4689 1.99205 -0.3175
v  -1.27677 -0.474479 4.61083e-17
v  -1.21451 0.994914 -0.148397
v  -1.26855 -0.474617 -0.0782794
v  -1.26855 -0.474617 0.0782794
v  -1.3131 -2.1862 4.70493e-17
v  -1.30471 -2.18634 -0.0798769
v  -1.27989 -2.18676 -0.156263
v  -1.24423 -0.475024 -0.153138
v  -1.17691 0.994285 -0.214687
v  -1.23974 -2.18743 -0.225819
v  -1.20488 -0.475683 -0.221303
v  -1.45005 -2.34863 -0.18868
v  -1.40941 -2.34931 -0.275831
v  -1.47493 -2.34822 -0.0957951
v  -1.46311 -3.12909 -0.18868
v  -1.42247 -3.12977 -0.275831
v  -1.35427 -2.35024 -0.354602
v  -1.36733 -3.1307 -0.354602
v  -1.36733 -3.1307 0.354602
v  -1.42247 -3.12977 0.275831
v  -1.48799 -3.12868 -0.0957951
v  -1.46311 -3.12909 0.18868
v  -1.35427 -2.35024 0.354602
v  -1.40941 -2.34931 0.275831
v  -1.28628 -2.35137 0.422598
v  -1.29934 -3.13184 0.422598
v  -1.18601 -2.18833 0.285506
v  -1.23974 -2.18743 0.225819
v  -1.27989 -2.18676 0.156263
v  -1.45005 -2.34863 0.18868
v  -1.20488 -0.475683 0.221303
v  -1.15222 -0.476564 0.279796
v  -1.08855 -0.477629 0.326061
v  -1.12104 -2.18942 0.332716
v  -1.06549 0.99242 0.3175
v  -1.12652 0.993441 0.271864
v  -1.17691 0.994285 0.214687
v  -1.24423 -0.475024 0.153138
v  -1.21451 0.994914 0.148397
v  -1.30471 -2.18634 0.0798769
v  -1.47493 -2.34822 0.0957951
v  -1.48331 -2.34808 6.75591e-17
v  -1.48799 -3.12868 0.0957951
v  -1.49637 -3.12854 6.75591e-17
v  -0.685949 0.986068 0.3175
v  -0.732277 9.56045 0.3175
v  -1.03184 9.57154 0.3175
v  -1.33154 9.56537 0.3175
v  -1.6304 9.54197 0.3175
v  -1.92741 9.50142 0.3175
v  -1.03184 9.57154 -0.3175
v  -1.33154 9.56537 -0.3175
v  -1.6304 9.54197 -0.3175
v  -1.92741 9.50142 -0.3175
v  -2.2216 9.44385 -0.3175
v  -2.2216 9.44385 0.3175
v  -1.06549 0.99242 -0.3175
v  -1.12652 0.993441 -0.271864
v  -1.15222 -0.476564 -0.279796
v  -1.18601 -2.18833 -0.285506
v  -1.12104 -2.18942 -0.332716
v  -1.08855 -0.477629 -0.326061
v  -1.28628 -2.35137 -0.422598
v  -1.04767 -2.19064 -0.365383
v  -1.20752 -2.35269 -0.477753
v  -1.12038 -2.35415 -0.518393
v  -0.993213 0.99121 -0.350744
v  -1.01665 -0.478833 -0.358076
v  -0.969124 -2.19196 -0.382082
v  -1.02751 -2.3557 -0.543281
v  -1.13344 -3.13461 -0.518393
v  -1.04057 -3.13617 -0.543281
v  -0.931727 -2.35731 -0.551662
v  -0.944788 -3.13777 -0.551662
v  -0.939672 -0.480121 -0.374441
v  -0.888818 -2.1933 -0.382082
v  -0.835945 -2.35891 -0.543281
v  -0.849007 -3.13937 -0.543281
v  -0.849007 -3.13937 0.543281
v  -0.944788 -3.13777 0.551662
v  -0.756135 -3.14093 -0.518393
v  -0.756135 -3.14093 0.518393
v  -0.810267 -2.19462 -0.365383
v  -0.743074 -2.36046 -0.518393
v  -0.668996 -3.14238 -0.477753
v  -0.668996 -3.14238 0.477753
v  -0.655935 -2.36192 0.477753
v  -0.743074 -2.36046 0.518393
v  -0.577175 -2.36324 0.422598
v  -0.590236 -3.1437 0.422598
v  -0.655935 -2.36192 -0.477753
v  -0.590236 -3.1437 -0.422598
v  -0.509188 -2.36438 0.354602
v  -0.52225 -3.14484 0.354602
v  -0.671936 -2.19693 0.285506
v  -0.736904 -2.19585 0.332716
v  -0.648428 -0.484995 0.279796
v  -0.712097 -0.483929 0.326061
v  -0.810267 -2.19462 0.365383
v  -0.618201 -2.19783 0.225819
v  -0.595768 -0.485876 0.221303
v  -0.624918 0.985047 0.271864
v  -0.758228 0.987278 0.350744
v  -0.783993 -0.482726 0.358076
v  -0.505868 0.983054 0.3175
v  -0.574534 0.984204 0.214687
v  -0.536935 0.983574 0.148397
v  -0.556418 -0.486535 0.153138
v  -0.532098 -0.486942 0.0782794
v  -0.513718 0.983186 0.0758077
v  -0.578048 -2.1985 0.156263
v  -0.553232 -2.19892 0.0798769
v  -0.523872 -0.48708 0
v  -0.505868 0.983054 0
v  -0.513718 0.983186 -0.0758077
v  -0.532098 -0.486942 -0.0782794
v  -0.544838 -2.19906 0
v  -0.536935 0.983574 -0.148397
v  -0.505868 0.983054 -0.3175
v  -0.553232 -2.19892 -0.0798769
v  -0.556418 -0.486535 -0.153138
v  -0.574534 0.984204 -0.214687
v  -0.624918 0.985047 -0.271864
v  -0.685949 0.986068 -0.3175
v  1.74956 1.90471 -0.3175
v  -0.595768 -0.485876 -0.221303
v  -0.578048 -2.1985 -0.156263
v  -0.648428 -0.484995 -0.279796
v  -0.618201 -2.19783 -0.225819
v  -0.712097 -0.483929 -0.326061
v  -0.671936 -2.19693 -0.285506
v  -0.509188 -2.36438 -0.354602
v  -0.45404 -2.3653 -0.275831
v  -0.413407 -2.36598 -0.18868
v  -0.467102 -3.14576 -0.275831
v  -0.426468 -3.14644 -0.18868
v  -0.577175 -2.36324 -0.422598
v  -0.52225 -3.14484 -0.354602
v  -0.426468 -3.14644 0.18868
v  -0.467102 -3.14576 0.275831
v  -0.401583 -3.14686 -0.0957951
v  -0.401583 -3.14686 0.0957951
v  -0.388522 -2.3664 0.0957951
v  -0.413407 -2.36598 0.18868
v  -0.45404 -2.3653 0.275831
v  -0.380142 -2.36654 0
v  -0.388522 -2.3664 -0.0957951
v  -0.393203 -3.147 0
v  -0.736904 -2.19585 -0.332716
v  -0.783993 -0.482726 -0.358076
v  -0.860973 -0.481438 -0.374441
v  -0.835943 0.988578 -0.367759
v  -0.758228 0.987278 -0.350744
v  -0.915498 0.98991 -0.367759
v  -0.732277 9.56045 -0.3175
v  -0.133182 9.54531 -0.3175
v  0.16472 9.51193 -0.3175
v  -0.432512 9.56151 -0.3175
v  -0.133182 9.54531 0.3175
v  0.16472 9.51193 0.3175
v  0.460209 9.46146 -0.3175
v  0.460209 9.46146 0.3175
v  1.74956 1.90471 0.3175
v  -0.432512 9.56151 0.3175
v  0.752305 9.39408 -0.3175
v  1.04004 9.31 -0.3175
v  1.32246 9.20952 -0.3175
v  1.59864 9.09295 -0.3175
v  1.86765 8.96068 -0.3175
v  0.752305 9.39408 0.3175
v  1.04004 9.31 0.3175
v  1.32246 9.20952 0.3175
v  1.59864 9.09295 0.3175
v  1.86765 8.96068 0.3175
v  -0.993213 0.99121 0.350744
v  -0.915498 0.98991 0.367759
v  -0.835943 0.988578 0.367759
v  -1.01665 -0.478833 0.358076
v  -0.860973 -0.481438 0.374441
v  -0.939672 -0.480121 0.374441
v  -0.888818 -2.1933 0.382082
v  -0.969124 -2.19196 0.382082
v  -1.04767 -2.19064 0.365383
v  -1.02751 -2.3557 0.543281
v  -1.12038 -2.35415 0.518393
v  -0.931727 -2.35731 0.551662
v  -0.835945 -2.35891 0.543281
v  -1.04057 -3.13617 0.543281
v  -1.13344 -3.13461 0.518393
v  -1.22058 -3.13315 0.477753
v  -1.22058 -3.13315 -0.477753
v  -1.29934 -3.13184 -0.422598
v  -1.20752 -2.35269 0.477753
v  -3.35082 9.04802 -0.3175
v  -3.35082 9.04802 0.3175
v  -2.51198 9.36945 -0.3175
v  -3.07753 9.1712 -0.3175
v  -2.79761 9.27847 -0.3175
v  -3.07753 9.1712 0.3175
v  -2.51198 9.36945 0.3175
v  -2.79761 9.27847 0.3175

# 0 UV coordinates

# 208 vertex normals
vn -0.466333 -0.884609 2.91746e-10
vn -0.985297 -0.00467213 0.170785
vn -0.00952029 -0.0222336 0.999708
vn -0.0115378 -0.0269452 -0.99957
vn -0.985297 -0.00467213 -0.170785
vn -0.187798 -0.0706509 0.979663
vn -0.329541 -0.0654321 -0.941871
vn -0.999635 0.021196 -0.0167523
vn -0.92882 -0.0230876 -0.369811
vn -0.970234 0.0206986 -0.241284
vn -0.9788 0.0208445 0.203755
vn -0.988779 0.14634 0.0299974
vn -0.97719 0.115657 -0.178111
vn -0.919222 0.114816 -0.376627
vn -0.899071 0.0194957 -0.437369
vn -0.832604 -0.0332956 -0.552867
vn -0.821491 0.113177 -0.558877
vn -0.78878 0.0176383 -0.614422
vn -0.915804 0.181864 -0.35809
vn -0.838809 0.1805 -0.513633
vn -0.964312 0.182889 -0.191454
vn -0.932295 -0.190021 -0.307764
vn -0.82073 -0.365498 -0.439105
vn -0.735716 0.178836 -0.653253
vn -0.668126 -0.531081 -0.521115
vn -0.669123 -0.453536 0.58871
vn -0.819079 -0.277028 0.502359
vn -0.988053 -0.0535533 -0.144511
vn -0.923451 -0.114875 0.366118
vn -0.76658 0.179366 0.616589
vn -0.862769 0.180901 0.472127
vn -0.646542 0.177571 0.741925
vn -0.502075 -0.600591 0.622263
vn -0.641991 0.110047 0.758774
vn -0.784903 0.112569 0.609308
vn -0.893848 0.114388 0.433534
vn -0.932119 0.182123 0.313025
vn -0.811839 0.0180266 0.583603
vn -0.673112 0.0156936 0.739374
vn -0.503948 0.0128894 0.863638
vn -0.467329 0.137613 0.873307
vn -0.535015 0.0491081 0.843414
vn -0.700933 -0.0348849 0.712374
vn -0.832604 -0.0332956 0.552867
vn -0.915235 0.0197687 0.402435
vn -0.92882 -0.0230876 0.369811
vn -0.964125 0.115427 0.239037
vn -0.972477 0.182998 0.144225
vn -0.98969 0.140963 -0.0253597
vn -0.979271 -0.0120064 0.2022
vn -0.999529 0.00957183 0.0291498
vn 0.0277451 0.000436437 0.999615
vn 0.000953233 0.0405815 0.999176
vn -0.000153854 0.110372 0.99389
vn -0.00651322 0.110356 0.993871
vn -0.012888 0.110115 0.993835
vn -0.00431468 0.0245365 0.99969
vn 0.00151434 0.085077 -0.996373
vn -0.00439441 0.110461 -0.993871
vn -0.0107724 0.110342 -0.993835
vn -0.00384306 0.0246148 -0.99969
vn -0.028452 0.131911 -0.990853
vn -0.0309783 0.131341 0.990853
vn -0.00519797 0.000477113 -0.999986
vn -0.700933 -0.0348849 -0.712374
vn -0.644162 0.0152068 -0.764738
vn -0.688215 0.110809 -0.716994
vn -0.519279 0.138483 -0.84331
vn -0.470564 0.0123282 -0.88228
vn -0.609728 0.176927 -0.772611
vn -0.333537 0.104885 -0.936884
vn -0.471845 0.132297 -0.871699
vn -0.31498 0.172022 -0.933379
vn -0.346663 0.0443426 -0.936941
vn -0.275962 0.00909355 -0.961126
vn -0.132656 0.101653 -0.985936
vn -0.146438 0.168988 -0.974679
vn -0.240337 -0.784451 -0.57173
vn -0.13199 -0.808557 -0.573424
vn 0.0267455 0.166014 -0.985761
vn -0.0305298 -0.814457 -0.57942
vn -0.0691869 0.00565655 -0.997588
vn 0.07402 0.0981903 -0.992411
vn 0.199189 0.16319 -0.966278
vn 0.0731015 -0.803331 -0.591029
vn 0.104861 -0.812521 0.573423
vn 0.00326073 -0.815022 0.57942
vn 0.188154 -0.772211 -0.606867
vn 0.213953 -0.792054 0.571729
vn 0.277571 0.0946462 -0.956032
vn 0.365538 0.160606 -0.916836
vn 0.323135 -0.713708 -0.621454
vn 0.339108 -0.748461 0.569923
vn 0.476008 0.116434 0.871699
vn 0.32056 0.161386 0.933379
vn 0.615307 0.156426 0.772611
vn 0.485919 -0.672269 0.558513
vn 0.519926 0.115699 -0.84634
vn 0.481696 -0.617055 -0.622263
vn 0.741288 0.154118 0.653253
vn 0.64998 -0.553141 0.521115
vn 0.691538 0.0877183 0.716994
vn 0.523622 0.121029 0.84331
vn 0.644311 -0.00635638 0.764737
vn 0.470713 -0.00342451 0.88228
vn 0.33686 0.0936653 0.936884
vn 0.824818 0.0856253 0.558877
vn 0.788929 -0.00876541 0.614422
vn 0.699373 -0.0583198 0.712374
vn 0.347807 0.0726671 0.934746
vn 0.276111 -0.000145669 0.961126
vn 0.0104782 -0.026927 0.999582
vn 0.831024 -0.0611373 0.552867
vn 0.927527 -0.0541545 0.369812
vn 0.899219 -0.0105996 0.43737
vn 0.970383 -0.0117786 0.241285
vn 0.984589 -0.0376392 0.170785
vn 0.922549 0.0839935 0.376628
vn 0.980513 0.0828935 0.178111
vn 0.999784 -0.0122652 0.0167522
vn 0.436471 -0.899718 2.91746e-10
vn 0.984589 -0.0376392 -0.170785
vn 0.978949 -0.0119194 -0.203755
vn 0.993123 0.113172 -0.0299971
vn 0.927527 -0.0541545 -0.369812
vn 0.354577 -0.911195 -0.20976
vn 0.967448 0.0831008 -0.239038
vn 0.915384 -0.0108676 -0.402435
vn 0.831024 -0.0611373 -0.552867
vn 0.699373 -0.0583198 -0.712374
vn 0.217365 0.0034192 -0.976084
vn 0.148321 -0.0615404 -0.987023
vn 0.811988 -0.00914891 -0.583603
vn 0.897174 0.0844144 -0.433535
vn 0.67326 -0.00683854 -0.739374
vn 0.78823 0.0862414 -0.609308
vn 0.504097 -0.00398075 -0.863638
vn 0.645314 0.0885032 -0.758773
vn 0.772153 0.153615 -0.616589
vn 0.868339 0.15193 -0.472127
vn 0.937692 0.150831 -0.313025
vn 0.809351 -0.304281 -0.502359
vn 0.91909 -0.14571 -0.366119
vn 0.652122 0.155837 -0.741925
vn 0.653572 -0.475671 -0.58871
vn 0.925414 -0.221111 0.307764
vn 0.808041 -0.392756 0.439105
vn 0.97832 -0.0447676 -0.2022
vn 0.985708 -0.0865852 0.144511
vn 0.969891 0.150519 0.191454
vn 0.921377 0.151118 0.35809
vn 0.844379 0.152331 0.513633
vn 0.993853 0.107768 0.0253597
vn 0.978056 0.150355 -0.144225
vn 0.99929 -0.0238794 -0.0291498
vn 0.471672 0.121899 -0.873308
vn 0.312654 -0.000754605 -0.949867
vn 0.127065 0.0023613 -0.991892
vn 0.106155 0.00571995 -0.994333
vn 0.347807 0.0726671 -0.934746
vn -0.140673 0.0223052 -0.989805
vn 0.000737059 0.073813 -0.997272
vn 0.00680356 0.0734058 -0.997279
vn 0.00308886 0.0204408 -0.999786
vn 0.0348518 0.999352 -0.00905475
vn 0.00540663 0.0737008 0.997266
vn 0.00318747 0.0242321 0.999701
vn 0.0271891 0.129122 -0.991256
vn 0.0247062 0.12962 0.991256
vn 0.302829 -0.0707374 0.950416
vn 0.0156692 0.999836 0.00905475
vn 0.0353556 0.130231 -0.990853
vn 0.043818 0.131059 -0.990406
vn 0.0525897 0.131586 -0.989909
vn 0.0616844 0.131787 -0.989357
vn 0.978339 0.00225564 -0.206997
vn 0.0328501 0.130885 0.990853
vn 0.0412948 0.131876 0.990406
vn 0.0500549 0.132571 0.989909
vn 0.059144 0.132946 0.989357
vn 0.923404 0.0529707 0.380157
vn -0.346663 0.0443426 0.936941
vn -0.105749 0.0179067 0.994232
vn 0.141171 0.00609686 0.989966
vn -0.312504 0.00970773 0.949867
vn 0.0693374 0.00333828 0.997588
vn -0.126915 0.00661176 0.991892
vn 0.135983 0.0971571 0.985936
vn -0.0706929 0.100612 0.992411
vn -0.274249 0.103881 0.956032
vn -0.193617 0.169764 0.966278
vn -0.359959 0.172747 0.916836
vn -0.0211753 0.166816 0.985761
vn 0.15201 0.163993 0.974679
vn -0.099941 -0.800435 0.59103
vn -0.213889 -0.765483 0.606867
vn -0.346835 -0.702496 0.621454
vn -0.363964 -0.736695 -0.569922
vn -0.508142 -0.655633 -0.558514
vn -0.515763 0.133032 0.84634
vn -0.921114 0.0838396 -0.380157
vn -0.977716 0.0349912 0.206997
vn -0.0368593 0.133184 -0.990406
vn -0.0546621 0.134851 -0.989357
vn -0.0455909 0.134172 -0.989909
vn -0.0572398 0.133777 0.989357
vn -0.0394083 0.132452 0.990406
vn -0.0481571 0.133272 0.989909

# Mesh '<STL_BINARY>' with 412 faces
g <STL_BINARY>
usemtl DefaultMaterial
f  1//1 2//2 3//3
f  4//4 5//5 1//1
f  3//3 6//6 1//1
f  1//1 6//6 7//7
f  4//4 1//1 7//7
f  2//2 1//1 8//8
f  8//8 1//1 5//5
f  9//9 5//5 4//4
f  10//10 5//5 9//9
f  8//8 5//5 10//10
f  11//11 2//2 8//8
f  12//12 8//8 13//13
f  12//12 11//11 8//8
f  13//13 8//8 10//10
f  13//13 10//10 14//14
f  10//10 9//9 15//15
f  14//14 10//10 15//15
f  9//9 4//4 16//16
f  15//15 9//9 16//16
f  14//14 15//15 17//17
f  15//15 16//16 18//18
f  17//17 15//15 18//18
f  19//19 13//13 14//14
f  20//20 14//14 17//17
f  19//19 14//14 20//20
f  12//12 13//13 21//21
f  21//21 13//13 19//19
f  22//22 21//21 19//19
f  23//23 19//19 20//20
f  22//22 19//19 23//23
f  20//20 17//17 24//24
f  25//25 20//20 24//24
f  23//23 20//20 25//25
f  23//23 26//26 27//27
f  25//25 26//26 23//23
f  23//23 27//27 22//22
f  28//28 21//21 22//22
f  22//22 27//27 29//29
f  22//22 29//29 28//28
f  27//27 30//30 31//31
f  26//26 30//30 27//27
f  27//27 31//31 29//29
f  26//26 32//32 30//30
f  33//33 32//32 26//26
f  25//25 33//33 26//26
f  32//32 34//34 30//30
f  30//30 34//34 35//35
f  30//30 35//35 31//31
f  31//31 35//35 36//36
f  31//31 36//36 37//37
f  29//29 31//31 37//37
f  35//35 38//38 36//36
f  35//35 39//39 38//38
f  35//35 34//34 39//39
f  39//39 34//34 40//40
f  40//40 34//34 41//41
f  41//41 34//34 32//32
f  42//42 39//39 40//40
f  42//42 43//43 39//39
f  39//39 43//43 38//38
f  43//43 44//44 38//38
f  38//38 44//44 45//45
f  36//36 38//38 45//45
f  44//44 43//43 3//3
f  3//3 43//43 42//42
f  44//44 3//3 46//46
f  44//44 46//46 45//45
f  36//36 45//45 47//47
f  45//45 46//46 11//11
f  47//47 45//45 11//11
f  3//3 2//2 46//46
f  46//46 2//2 11//11
f  47//47 11//11 12//12
f  37//37 36//36 47//47
f  48//48 47//47 12//12
f  37//37 47//47 48//48
f  49//49 12//12 21//21
f  49//49 48//48 12//12
f  50//50 37//37 48//48
f  51//51 48//48 49//49
f  50//50 48//48 51//51
f  29//29 37//37 50//50
f  28//28 29//29 50//50
f  51//51 28//28 50//50
f  51//51 49//49 28//28
f  28//28 49//49 21//21
f  42//42 52//52 3//3
f  3//3 52//52 53//53
f  54//54 3//3 53//53
f  54//54 55//55 3//3
f  3//3 55//55 56//56
f  57//57 3//3 56//56
f  57//57 6//6 3//3
f  53//53 58//58 54//54
f  54//54 58//58 59//59
f  54//54 59//59 55//55
f  55//55 59//59 60//60
f  55//55 60//60 56//56
f  56//56 60//60 61//61
f  56//56 61//61 57//57
f  57//57 61//61 62//62
f  57//57 62//62 63//63
f  57//57 63//63 6//6
f  60//60 4//4 61//61
f  61//61 4//4 7//7
f  62//62 61//61 7//7
f  59//59 4//4 60//60
f  59//59 58//58 4//4
f  64//64 65//65 4//4
f  4//4 65//65 16//16
f  58//58 64//64 4//4
f  18//18 16//16 65//65
f  66//66 65//65 64//64
f  18//18 65//65 66//66
f  17//17 18//18 67//67
f  67//67 18//18 66//66
f  67//67 66//66 68//68
f  66//66 64//64 69//69
f  68//68 66//66 69//69
f  24//24 17//17 67//67
f  70//70 67//67 68//68
f  24//24 67//67 70//70
f  68//68 69//69 71//71
f  72//72 68//68 73//73
f  72//72 70//70 68//68
f  68//68 71//71 73//73
f  69//69 64//64 74//74
f  69//69 74//74 75//75
f  71//71 69//69 75//75
f  71//71 75//75 76//76
f  73//73 71//71 77//77
f  77//77 71//71 76//76
f  78//78 72//72 73//73
f  79//79 73//73 77//77
f  78//78 73//73 79//79
f  77//77 76//76 80//80
f  81//81 77//77 80//80
f  79//79 77//77 81//81
f  76//76 82//82 83//83
f  76//76 75//75 82//82
f  80//80 76//76 83//83
f  80//80 83//83 84//84
f  85//85 80//80 84//84
f  81//81 80//80 85//85
f  81//81 86//86 87//87
f  85//85 86//86 81//81
f  81//81 87//87 79//79
f  85//85 84//84 88//88
f  85//85 89//89 86//86
f  88//88 89//89 85//85
f  84//84 83//83 90//90
f  84//84 90//90 91//91
f  88//88 84//84 91//91
f  88//88 91//91 92//92
f  88//88 93//93 89//89
f  92//92 93//93 88//88
f  89//89 94//94 95//95
f  93//93 94//94 89//89
f  89//89 95//95 86//86
f  93//93 96//96 94//94
f  97//97 96//96 93//93
f  92//92 97//97 93//93
f  92//92 91//91 98//98
f  92//92 98//98 99//99
f  99//99 97//97 92//92
f  97//97 100//100 96//96
f  101//101 100//100 97//97
f  99//99 101//101 97//97
f  96//96 102//102 103//103
f  94//94 96//96 103//103
f  100//100 102//102 96//96
f  94//94 103//103 95//95
f  102//102 104//104 103//103
f  103//103 105//105 106//106
f  103//103 104//104 105//105
f  103//103 106//106 95//95
f  107//107 108//108 102//102
f  102//102 108//108 104//104
f  100//100 107//107 102//102
f  108//108 109//109 104//104
f  109//109 52//52 104//104
f  104//104 52//52 105//105
f  52//52 110//110 105//105
f  105//105 110//110 111//111
f  106//106 105//105 111//111
f  52//52 42//42 110//110
f  52//52 109//109 112//112
f  52//52 112//112 53//53
f  113//113 109//109 108//108
f  112//112 109//109 113//113
f  114//114 113//113 115//115
f  115//115 113//113 108//108
f  114//114 112//112 113//113
f  114//114 116//116 117//117
f  114//114 115//115 116//116
f  114//114 117//117 112//112
f  107//107 115//115 108//108
f  107//107 118//118 115//115
f  115//115 118//118 116//116
f  116//116 118//118 119//119
f  120//120 116//116 119//119
f  120//120 117//117 116//116
f  120//120 121//121 117//117
f  112//112 117//117 121//121
f  122//122 121//121 120//120
f  123//123 120//120 124//124
f  120//120 123//123 122//122
f  120//120 119//119 124//124
f  123//123 125//125 122//122
f  121//121 122//122 126//126
f  126//126 122//122 125//125
f  127//127 123//123 124//124
f  127//127 128//128 123//123
f  128//128 125//125 123//123
f  129//129 125//125 128//128
f  129//129 126//126 125//125
f  129//129 130//130 126//126
f  126//126 130//130 131//131
f  131//131 132//132 126//126
f  126//126 132//132 121//121
f  129//129 133//133 130//130
f  129//129 128//128 133//133
f  127//127 134//134 128//128
f  128//128 134//134 133//133
f  135//135 130//130 133//133
f  136//136 133//133 134//134
f  136//136 135//135 133//133
f  131//131 130//130 135//135
f  137//137 131//131 135//135
f  138//138 135//135 136//136
f  138//138 137//137 135//135
f  139//139 138//138 136//136
f  140//140 136//136 134//134
f  139//139 136//136 140//140
f  141//141 134//134 127//127
f  140//140 134//134 141//141
f  142//142 139//139 140//140
f  143//143 140//140 141//141
f  142//142 140//140 143//143
f  144//144 138//138 139//139
f  145//145 144//144 139//139
f  145//145 139//139 142//142
f  142//142 146//146 147//147
f  143//143 146//146 142//142
f  142//142 147//147 145//145
f  143//143 141//141 148//148
f  148//148 149//149 143//143
f  143//143 149//149 146//146
f  150//150 146//146 149//149
f  150//150 151//151 146//146
f  146//146 151//151 147//147
f  147//147 151//151 152//152
f  147//147 152//152 101//101
f  145//145 147//147 101//101
f  119//119 151//151 150//150
f  119//119 118//118 151//151
f  151//151 118//118 152//152
f  119//119 150//150 124//124
f  153//153 124//124 150//150
f  150//150 149//149 153//153
f  154//154 127//127 124//124
f  153//153 154//154 124//124
f  155//155 154//154 153//153
f  149//149 155//155 153//153
f  141//141 127//127 154//154
f  148//148 141//141 154//154
f  148//148 154//154 155//155
f  155//155 149//149 148//148
f  152//152 118//118 107//107
f  152//152 107//107 100//100
f  101//101 152//152 100//100
f  145//145 101//101 99//99
f  99//99 144//144 145//145
f  99//99 98//98 144//144
f  98//98 156//156 144//144
f  156//156 138//138 144//144
f  98//98 91//91 156//156
f  90//90 157//157 156//156
f  156//156 137//137 138//138
f  156//156 157//157 137//137
f  91//91 90//90 156//156
f  90//90 158//158 157//157
f  90//90 83//83 158//158
f  158//158 159//159 157//157
f  159//159 160//160 157//157
f  157//157 160//160 137//137
f  160//160 131//131 137//137
f  131//131 160//160 64//64
f  64//64 160//160 74//74
f  74//74 160//160 161//161
f  161//161 160//160 159//159
f  82//82 161//161 159//159
f  159//159 158//158 82//82
f  158//158 83//83 82//82
f  75//75 161//161 82//82
f  75//75 74//74 161//161
f  162//162 163//163 64//64
f  163//163 164//164 64//64
f  64//64 164//164 132//132
f  131//131 64//64 132//132
f  162//162 64//64 58//58
f  165//165 163//163 162//162
f  163//163 166//166 167//167
f  165//165 166//166 163//163
f  163//163 167//167 164//164
f  164//164 168//168 132//132
f  164//164 167//167 169//169
f  164//164 169//169 168//168
f  166//166 112//112 167//167
f  167//167 112//112 170//170
f  169//169 167//167 170//170
f  165//165 171//171 166//166
f  53//53 112//112 166//166
f  171//171 53//53 166//166
f  162//162 171//171 165//165
f  53//53 171//171 162//162
f  162//162 58//58 53//53
f  112//112 121//121 170//170
f  121//121 132//132 170//170
f  132//132 168//168 172//172
f  173//173 132//132 172//172
f  173//173 174//174 132//132
f  132//132 174//174 175//175
f  176//176 132//132 175//175
f  176//176 170//170 132//132
f  172//172 177//177 178//178
f  168//168 177//177 172//172
f  172//172 178//178 173//173
f  173//173 178//178 179//179
f  173//173 179//179 174//174
f  174//174 179//179 180//180
f  174//174 180//180 175//175
f  175//175 180//180 181//181
f  176//176 175//175 181//181
f  181//181 170//170 176//176
f  181//181 180//180 170//170
f  170//170 180//180 179//179
f  178//178 170//170 179//179
f  178//178 177//177 170//170
f  168//168 169//169 177//177
f  169//169 170//170 177//177
f  110//110 42//42 182//182
f  183//183 110//110 182//182
f  183//183 184//184 110//110
f  110//110 184//184 111//111
f  42//42 40//40 182//182
f  185//185 182//182 40//40
f  185//185 183//183 182//182
f  184//184 183//183 186//186
f  186//186 183//183 187//187
f  187//187 183//183 185//185
f  111//111 184//184 186//186
f  106//106 111//111 188//188
f  188//188 111//111 186//186
f  188//188 186//186 189//189
f  189//189 186//186 187//187
f  189//189 187//187 190//190
f  190//190 187//187 185//185
f  190//190 185//185 41//41
f  185//185 40//40 41//41
f  191//191 189//189 190//190
f  192//192 190//190 41//41
f  191//191 190//190 192//192
f  193//193 188//188 189//189
f  193//193 189//189 191//191
f  194//194 106//106 188//188
f  194//194 188//188 193//193
f  95//95 106//106 194//194
f  86//86 95//95 194//194
f  87//87 194//194 193//193
f  86//86 194//194 87//87
f  195//195 193//193 191//191
f  87//87 193//193 195//195
f  196//196 191//191 192//192
f  195//195 191//191 196//196
f  79//79 87//87 195//195
f  78//78 195//195 196//196
f  79//79 195//195 78//78
f  196//196 192//192 197//197
f  198//198 196//196 197//197
f  78//78 196//196 198//198
f  198//198 72//72 78//78
f  198//198 70//70 72//72
f  199//199 70//70 198//198
f  198//198 197//197 199//199
f  197//197 192//192 200//200
f  197//197 200//200 33//33
f  199//199 197//197 33//33
f  199//199 24//24 70//70
f  25//25 24//24 199//199
f  199//199 33//33 25//25
f  33//33 200//200 32//32
f  200//200 41//41 32//32
f  200//200 192//192 41//41
f  201//201 7//7 202//202
f  202//202 7//7 6//6
f  62//62 7//7 203//203
f  201//201 204//204 7//7
f  7//7 204//204 205//205
f  203//203 7//7 205//205
f  206//206 204//204 201//201
f  202//202 206//206 201//201
f  6//6 206//206 202//202
f  6//6 63//63 207//207
f  208//208 6//6 207//207
f  208//208 206//206 6//6
f  208//208 204//204 206//206
f  208//208 205//205 204//204
f  207//207 203//203 205//205
f  207//207 205//205 208//208
f  63//63 62//62 203//203
f  63//63 203//203 207//207

